<svg width="240" height="180" viewBox="0 0 240 180" fill="none" xmlns="http://www.w3.org/2000/svg">
<g clip-path="url(#clip0_45_933)">
<rect width="240" height="180" fill="#0B0B0B"/>
<rect width="175.5" height="127.5" transform="translate(28.5 26.6426)" fill="#3C3C3C"/>
<path fill-rule="evenodd" clip-rule="evenodd" d="M56.91 47.1698C55.146 47.1698 53.716 48.5998 53.716 50.3639C53.716 52.128 55.146 53.558 56.91 53.558C58.6741 53.558 60.1042 52.1279 60.1042 50.3639C60.1042 48.5998 58.6741 47.1698 56.91 47.1698ZM51.1607 50.3639C51.1607 47.1886 53.7347 44.6145 56.91 44.6145C60.0853 44.6145 62.6595 47.1886 62.6595 50.3639C62.6595 53.5392 60.0853 56.1133 56.91 56.1133C53.7347 56.1133 51.1607 53.5392 51.1607 50.3639ZM62.6038 58.2619L61.8845 57.016L59.6715 58.2936L60.3909 59.5395C59.7172 60.2 59.2523 61.0243 59.0237 61.91H57.5838V64.4653H59.0226C59.1358 64.9027 59.3093 65.3321 59.5462 65.7424C59.7832 66.1529 60.0685 66.518 60.3908 66.8348L59.6713 68.081L61.8843 69.3586L62.6044 68.1113C63.4857 68.356 64.4318 68.3655 65.3404 68.1124L66.0597 69.3583L68.2727 68.0807L67.5533 66.8348C68.227 66.1743 68.6919 65.35 68.9205 64.4643H70.3599V61.909H68.9216C68.8084 61.4716 68.6349 61.0421 68.398 60.6319C68.161 60.2214 67.8757 59.8562 67.5534 59.5394L68.2726 58.2936L66.0597 57.016L65.3397 58.263C64.4585 58.0183 63.5124 58.0088 62.6038 58.2619ZM54.3548 59.9462C51.5323 59.9462 49.2442 62.2343 49.2442 65.0567V66.4286H56.9101V68.9839H46.689V65.0567C46.689 60.823 50.1211 57.3909 54.3548 57.3909H56.9101V59.9462H54.3548ZM66.185 61.9095C65.4794 60.6873 63.9166 60.2686 62.6945 60.9742C61.4723 61.6798 61.0535 63.2426 61.7592 64.4648C62.4648 65.6869 64.0276 66.1057 65.2497 65.4001C66.4719 64.6945 66.8907 63.1317 66.185 61.9095Z" fill="#8F8F8F"/>
<path d="M44.3358 132.811L49.1358 116.011H53.6958L58.4718 132.811H55.8078L54.7038 128.851H48.1278L47.0238 132.811H44.3358ZM48.7758 126.451H54.0558L51.6078 117.619H51.2238L48.7758 126.451ZM65.7158 133.147C64.7398 133.147 63.8358 132.907 63.0038 132.427C62.1718 131.947 61.4998 131.259 60.9878 130.363C60.4918 129.451 60.2438 128.355 60.2438 127.075V126.715C60.2438 125.451 60.4918 124.363 60.9878 123.451C61.4838 122.539 62.1478 121.843 62.9798 121.363C63.8118 120.883 64.7238 120.643 65.7158 120.643C66.4838 120.643 67.1238 120.739 67.6358 120.931C68.1638 121.123 68.5958 121.371 68.9319 121.675C69.2679 121.963 69.5239 122.267 69.6998 122.587H70.0838V116.011H72.5558V132.811H70.1319V131.131H69.7478C69.4439 131.643 68.9799 132.107 68.3558 132.523C67.7479 132.939 66.8679 133.147 65.7158 133.147ZM66.4118 130.987C67.4839 130.987 68.3639 130.643 69.0519 129.955C69.7559 129.267 70.1079 128.283 70.1079 127.003V126.787C70.1079 125.523 69.7639 124.547 69.0759 123.859C68.3878 123.171 67.4998 122.827 66.4118 122.827C65.3558 122.827 64.4758 123.171 63.7718 123.859C63.0838 124.547 62.7398 125.523 62.7398 126.787V127.003C62.7398 128.283 63.0838 129.267 63.7718 129.955C64.4758 130.643 65.3558 130.987 66.4118 130.987ZM76.1948 132.811V120.979H78.6188V122.371H79.0028C79.2268 121.955 79.5868 121.587 80.0828 121.267C80.5789 120.947 81.2509 120.787 82.0989 120.787C82.9788 120.787 83.6828 120.971 84.2109 121.339C84.7549 121.691 85.1629 122.147 85.4349 122.707H85.8189C86.0909 122.163 86.4829 121.707 86.9949 121.339C87.5229 120.971 88.2668 120.787 89.2269 120.787C89.9949 120.787 90.6749 120.947 91.2669 121.267C91.8589 121.571 92.3309 122.035 92.6828 122.659C93.0349 123.267 93.2109 124.027 93.2109 124.939V132.811H90.7389V125.131C90.7389 124.411 90.5389 123.859 90.1388 123.475C89.7548 123.075 89.2028 122.875 88.4828 122.875C87.7148 122.875 87.0989 123.123 86.6349 123.619C86.1709 124.115 85.9389 124.827 85.9389 125.755V132.811H83.4668V125.131C83.4668 124.411 83.2668 123.859 82.8668 123.475C82.4828 123.075 81.9309 122.875 81.2109 122.875C80.4429 122.875 79.8268 123.123 79.3628 123.619C78.8988 124.115 78.6668 124.827 78.6668 125.755V132.811H76.1948ZM96.773 132.811V120.979H99.245V132.811H96.773ZM98.021 119.371C97.541 119.371 97.133 119.219 96.797 118.915C96.477 118.595 96.317 118.187 96.317 117.691C96.317 117.195 96.477 116.795 96.797 116.491C97.133 116.171 97.541 116.011 98.021 116.011C98.517 116.011 98.925 116.171 99.245 116.491C99.565 116.795 99.725 117.195 99.725 117.691C99.725 118.187 99.565 118.595 99.245 118.915C98.925 119.219 98.517 119.371 98.021 119.371ZM102.914 132.811V120.979H105.338V122.755H105.722C105.946 122.275 106.346 121.827 106.922 121.411C107.498 120.995 108.354 120.787 109.49 120.787C110.386 120.787 111.178 120.987 111.866 121.387C112.57 121.787 113.122 122.355 113.522 123.091C113.922 123.811 114.122 124.683 114.122 125.707V132.811H111.65V125.899C111.65 124.875 111.394 124.123 110.882 123.643C110.37 123.147 109.666 122.899 108.77 122.899C107.746 122.899 106.922 123.235 106.298 123.907C105.69 124.579 105.386 125.555 105.386 126.835V132.811H102.914ZM128.692 133.147C127.716 133.147 126.812 132.907 125.98 132.427C125.148 131.947 124.476 131.259 123.964 130.363C123.468 129.451 123.22 128.355 123.22 127.075V126.715C123.22 125.451 123.468 124.363 123.964 123.451C124.46 122.539 125.124 121.843 125.956 121.363C126.788 120.883 127.7 120.643 128.692 120.643C129.46 120.643 130.1 120.739 130.612 120.931C131.14 121.123 131.572 121.371 131.908 121.675C132.244 121.963 132.5 122.267 132.676 122.587H133.06V116.011H135.532V132.811H133.108V131.131H132.724C132.42 131.643 131.956 132.107 131.332 132.523C130.724 132.939 129.844 133.147 128.692 133.147ZM129.388 130.987C130.46 130.987 131.34 130.643 132.028 129.955C132.732 129.267 133.084 128.283 133.084 127.003V126.787C133.084 125.523 132.74 124.547 132.052 123.859C131.364 123.171 130.476 122.827 129.388 122.827C128.332 122.827 127.452 123.171 126.748 123.859C126.06 124.547 125.716 125.523 125.716 126.787V127.003C125.716 128.283 126.06 129.267 126.748 129.955C127.452 130.643 128.332 130.987 129.388 130.987ZM137.851 132.811L142.651 116.011H147.211L151.987 132.811H149.323L148.219 128.851H141.643L140.539 132.811H137.851ZM142.291 126.451H147.571L145.123 117.619H144.739L142.291 126.451ZM154.335 137.611V120.979H156.759V122.683H157.143C157.447 122.155 157.903 121.683 158.511 121.267C159.135 120.851 160.023 120.643 161.175 120.643C162.167 120.643 163.071 120.883 163.887 121.363C164.719 121.843 165.383 122.539 165.879 123.451C166.391 124.347 166.647 125.435 166.647 126.715V127.075C166.647 128.355 166.399 129.451 165.903 130.363C165.407 131.259 164.743 131.947 163.911 132.427C163.079 132.907 162.167 133.147 161.175 133.147C160.407 133.147 159.759 133.051 159.231 132.859C158.703 132.667 158.279 132.427 157.959 132.139C157.639 131.835 157.383 131.523 157.191 131.203H156.807V137.611H154.335ZM160.455 130.987C161.543 130.987 162.431 130.643 163.119 129.955C163.807 129.267 164.151 128.283 164.151 127.003V126.787C164.151 125.523 163.799 124.547 163.095 123.859C162.407 123.171 161.527 122.827 160.455 122.827C159.399 122.827 158.519 123.171 157.815 123.859C157.127 124.547 156.783 125.523 156.783 126.787V127.003C156.783 128.283 157.127 129.267 157.815 129.955C158.519 130.643 159.399 130.987 160.455 130.987ZM169.71 137.611V120.979H172.134V122.683H172.518C172.822 122.155 173.278 121.683 173.886 121.267C174.51 120.851 175.398 120.643 176.55 120.643C177.542 120.643 178.446 120.883 179.262 121.363C180.094 121.843 180.758 122.539 181.254 123.451C181.766 124.347 182.022 125.435 182.022 126.715V127.075C182.022 128.355 181.774 129.451 181.278 130.363C180.782 131.259 180.118 131.947 179.286 132.427C178.454 132.907 177.542 133.147 176.55 133.147C175.782 133.147 175.134 133.051 174.606 132.859C174.078 132.667 173.654 132.427 173.334 132.139C173.014 131.835 172.758 131.523 172.566 131.203H172.182V137.611H169.71ZM175.83 130.987C176.918 130.987 177.806 130.643 178.494 129.955C179.182 129.267 179.526 128.283 179.526 127.003V126.787C179.526 125.523 179.174 124.547 178.47 123.859C177.782 123.171 176.902 122.827 175.83 122.827C174.774 122.827 173.894 123.171 173.19 123.859C172.502 124.547 172.158 125.523 172.158 126.787V127.003C172.158 128.283 172.502 129.267 173.19 129.955C173.894 130.643 174.774 130.987 175.83 130.987Z" fill="white"/>
<rect width="150.442" height="127.764" transform="translate(216 26.6426)" fill="#292929"/>
<g filter="url(#filter0_d_45_933)">
<path d="M153.341 79.8173C153.341 80.1073 153.486 79.0092 153.942 78.2841C154.118 77.762 154.494 77.3312 154.987 77.0865C155.232 76.9653 155.498 76.8934 155.77 76.8749C156.042 76.8564 156.315 76.8917 156.573 76.9788C156.832 77.0658 157.071 77.203 157.276 77.3823C157.482 77.5617 157.65 77.7798 157.771 78.0241C157.892 78.2684 157.964 78.5342 157.983 78.8064C158.001 79.0785 157.966 79.3516 157.879 79.6101C157.879 80.9775 157.879 80.9153 157.879 81.827C157.879 82.7386 157.879 83.5259 157.879 84.3132C157.799 85.5252 157.633 86.73 157.381 87.9183C157.048 88.9253 156.589 89.886 156.014 90.7775C155.007 91.9029 154.176 93.1742 153.548 94.5483C153.386 95.2263 153.316 95.9233 153.341 96.6201C153.342 97.2636 153.426 97.9042 153.59 98.5263C152.743 98.6195 151.888 98.6195 151.042 98.5263C150.233 98.402 149.218 96.7859 148.97 96.2887C148.907 96.1521 148.806 96.0365 148.679 95.9555C148.552 95.8744 148.405 95.8314 148.255 95.8314C148.104 95.8314 147.957 95.8744 147.831 95.9555C147.704 96.0365 147.603 96.1521 147.54 96.2887C147.084 97.076 146.09 98.5056 145.365 98.5884C143.997 98.7542 141.117 98.5884 138.88 98.5884C138.88 98.5884 139.253 96.5166 138.403 95.7707C137.554 95.0248 136.683 94.1546 136.02 93.5745L134.301 91.6684C133.09 90.5407 132.203 89.1101 131.732 87.5246C131.297 85.5771 131.338 84.624 131.732 83.8574C132.167 83.2206 132.825 82.7697 133.576 82.5936C134.178 82.4875 134.796 82.5301 135.378 82.7179C135.785 82.8881 136.136 83.1678 136.393 83.5259C136.87 84.1682 137.015 84.479 136.849 83.7745C136.683 83.0701 136.435 82.0341 136 80.5631C135.647 79.4236 135.295 78.7813 135.026 78.0147C134.757 77.2481 134.404 76.523 133.99 75.5699C133.615 74.5967 133.303 73.6001 133.058 72.5864C132.964 72.1689 132.962 71.7361 133.051 71.3176C133.14 70.8991 133.319 70.505 133.576 70.1623C133.94 69.804 134.392 69.5482 134.887 69.4209C135.382 69.2935 135.901 69.2992 136.393 69.4372C137.175 69.7759 137.834 70.3475 138.279 71.0739C138.898 72.076 139.399 73.1467 139.771 74.2646C140.453 76.0433 140.94 77.8914 141.221 79.7758C141.17 78.6639 141.261 77.55 141.49 76.4608C141.605 76.1301 141.794 75.8297 142.041 75.5821C142.289 75.3346 142.589 75.1462 142.92 75.0312C143.535 74.8339 144.19 74.7912 144.826 74.9069C145.46 75.0478 146.02 75.4164 146.401 75.9428C146.876 77.1538 147.149 78.4347 147.209 79.7344C147.269 78.6238 147.464 77.5245 147.789 76.4608C148.136 75.9742 148.641 75.6228 149.218 75.4663C149.903 75.3424 150.605 75.3424 151.29 75.4663C151.851 75.6564 152.341 76.01 152.699 76.4815C153.137 77.5805 153.403 78.7407 153.486 79.9208" fill="white"/>
<path d="M153.341 79.8173C153.341 80.1073 153.486 79.0092 153.942 78.2841C154.118 77.762 154.494 77.3312 154.987 77.0865C155.232 76.9653 155.498 76.8934 155.77 76.8749C156.042 76.8564 156.315 76.8917 156.573 76.9788C156.832 77.0658 157.071 77.203 157.276 77.3823C157.482 77.5617 157.65 77.7798 157.771 78.0241C157.892 78.2684 157.964 78.5342 157.983 78.8064C158.001 79.0785 157.966 79.3516 157.879 79.6101C157.879 80.9775 157.879 80.9153 157.879 81.827C157.879 82.7386 157.879 83.5259 157.879 84.3132C157.799 85.5252 157.633 86.73 157.381 87.9183C157.048 88.9253 156.589 89.886 156.014 90.7775C155.007 91.9029 154.176 93.1742 153.548 94.5483C153.386 95.2263 153.316 95.9233 153.341 96.6201C153.342 97.2636 153.426 97.9042 153.59 98.5263C152.743 98.6195 151.888 98.6195 151.042 98.5263C150.233 98.402 149.218 96.7859 148.97 96.2887C148.907 96.1521 148.806 96.0365 148.679 95.9555C148.552 95.8744 148.405 95.8314 148.255 95.8314C148.104 95.8314 147.957 95.8744 147.831 95.9555C147.704 96.0365 147.603 96.1521 147.54 96.2887C147.084 97.076 146.09 98.5056 145.365 98.5884C143.997 98.7542 141.117 98.5884 138.88 98.5884C138.88 98.5884 139.253 96.5166 138.403 95.7707C137.554 95.0248 136.683 94.1546 136.02 93.5745L134.301 91.6684C133.09 90.5407 132.203 89.1101 131.732 87.5246C131.297 85.5771 131.338 84.624 131.732 83.8574C132.167 83.2206 132.825 82.7697 133.576 82.5936C134.178 82.4875 134.796 82.5301 135.378 82.7179C135.785 82.8881 136.136 83.1678 136.393 83.5259C136.87 84.1682 137.015 84.479 136.849 83.7745C136.683 83.0701 136.435 82.0341 136 80.5631C135.647 79.4236 135.295 78.7813 135.026 78.0147C134.757 77.2481 134.404 76.523 133.99 75.5699C133.615 74.5967 133.303 73.6001 133.058 72.5864C132.964 72.1689 132.962 71.7361 133.051 71.3176C133.14 70.8991 133.319 70.505 133.576 70.1623C133.94 69.804 134.392 69.5482 134.887 69.4209C135.382 69.2935 135.901 69.2992 136.393 69.4372C137.175 69.7759 137.834 70.3475 138.279 71.0739C138.898 72.076 139.399 73.1467 139.771 74.2646C140.453 76.0433 140.94 77.8914 141.221 79.7758C141.17 78.6639 141.261 77.55 141.49 76.4608C141.605 76.1301 141.794 75.8297 142.041 75.5821C142.289 75.3346 142.589 75.1462 142.92 75.0312C143.535 74.8339 144.19 74.7912 144.826 74.9069C145.46 75.0478 146.02 75.4164 146.401 75.9428C146.876 77.1538 147.149 78.4347 147.209 79.7344C147.269 78.6238 147.464 77.5245 147.789 76.4608C148.136 75.9742 148.641 75.6228 149.218 75.4663C149.903 75.3424 150.605 75.3424 151.29 75.4663C151.851 75.6564 152.341 76.01 152.699 76.4815C153.077 77.5554 153.294 78.6796 153.341 79.8173V79.8173Z" stroke="#0F0F10" stroke-width="1.4625" stroke-linejoin="round"/>
<path d="M151.332 92.4143V85.2456" stroke="#0F0F10" stroke-width="1.4625" stroke-linecap="round"/>
<path d="M147.147 92.435L147.126 85.2456" stroke="#0F0F10" stroke-width="1.4625" stroke-linecap="round"/>
<path d="M143.024 85.3079L143.065 92.3937" stroke="#0F0F10" stroke-width="1.4625" stroke-linecap="round"/>
</g>
</g>
<defs>
<filter id="filter0_d_45_933" x="126.789" y="68.5981" width="35.8291" height="38.5952" filterUnits="userSpaceOnUse" color-interpolation-filters="sRGB">
<feFlood flood-opacity="0" result="BackgroundImageFix"/>
<feColorMatrix in="SourceAlpha" type="matrix" values="0 0 0 0 0 0 0 0 0 0 0 0 0 0 0 0 0 0 127 0" result="hardAlpha"/>
<feOffset dy="3.9"/>
<feGaussianBlur stdDeviation="1.95"/>
<feColorMatrix type="matrix" values="0 0 0 0 0 0 0 0 0 0 0 0 0 0 0 0 0 0 0.25 0"/>
<feBlend mode="normal" in2="BackgroundImageFix" result="effect1_dropShadow_45_933"/>
<feBlend mode="normal" in="SourceGraphic" in2="effect1_dropShadow_45_933" result="shape"/>
</filter>
<clipPath id="clip0_45_933">
<rect width="240" height="180" fill="white"/>
</clipPath>
</defs>
</svg>
