<svg width="240" height="179" viewBox="0 0 240 179" fill="none" xmlns="http://www.w3.org/2000/svg">
<g clip-path="url(#clip0_1514_1768)">
<rect width="240" height="178.396" fill="url(#paint0_linear_1514_1768)"/>
<rect width="166" height="183" rx="10.9368" transform="matrix(1 0 0 -1 37 204)" fill="#1D232D"/>
<path d="M126.123 44.975C126.377 43.2568 125.085 42.3332 123.317 41.717L123.89 39.3896L122.49 39.0365L121.932 41.3026C121.563 41.2098 121.185 41.1222 120.81 41.0355L121.372 38.7544L119.973 38.4014L119.399 40.728C119.094 40.6578 118.795 40.5884 118.505 40.5154L118.506 40.5081L116.575 40.0203L116.203 41.5334C116.203 41.5334 117.242 41.7743 117.22 41.7892C117.787 41.9325 117.889 42.3122 117.872 42.6132L117.219 45.2647C117.258 45.2748 117.309 45.2893 117.364 45.3119C117.318 45.3002 117.268 45.2873 117.217 45.2748L116.301 48.9891C116.231 49.1634 116.056 49.4249 115.659 49.3256C115.673 49.3462 114.641 49.0686 114.641 49.0686L113.946 50.6903L115.768 51.1499C116.107 51.2358 116.44 51.3258 116.767 51.4105L116.187 53.7646L117.586 54.1177L118.16 51.7886C118.542 51.8935 118.913 51.9904 119.276 52.0816L118.704 54.3997L120.104 54.7528L120.683 52.4032C123.071 52.8603 124.866 52.6759 125.622 50.4909C126.231 48.7316 125.592 47.7168 124.336 47.055C125.25 46.8416 125.94 46.2327 126.123 44.975V44.975ZM122.924 49.514C122.492 51.2733 119.564 50.3223 118.615 50.0838L119.384 46.9651C120.333 47.2047 123.376 47.6793 122.924 49.514ZM123.357 44.9495C122.963 46.5499 120.526 45.7368 119.735 45.5374L120.432 42.7088C121.223 42.9082 123.769 43.2802 123.357 44.9495V44.9495Z" fill="#6E7889"/>
<rect x="97.4424" y="33.8598" width="45.2171" height="25.4346" rx="2.82607" stroke="#323945" stroke-width="1.41303"/>
<path d="M96.898 85.8072C96.1385 85.8072 95.4545 85.6562 94.846 85.3541C94.2375 85.052 93.7499 84.6378 93.3831 84.1113C93.0163 83.5848 92.8156 82.985 92.7811 82.3118H94.3346C94.3951 82.9116 94.6669 83.4079 95.1502 83.8006C95.6379 84.189 96.2204 84.3832 96.898 84.3832C97.4417 84.3832 97.925 84.2559 98.3479 84.0012C98.7751 83.7466 99.1096 83.3971 99.3512 82.9526C99.5972 82.5038 99.7202 81.9968 99.7202 81.4315C99.7202 80.8532 99.5929 80.3375 99.3383 79.8844C99.088 79.427 98.7428 79.0667 98.3026 78.8034C97.8624 78.5402 97.3597 78.4064 96.7944 78.4021C96.3887 78.3978 95.9723 78.4603 95.5451 78.5898C95.1179 78.715 94.7662 78.8768 94.49 79.0753L92.9883 78.894L93.7909 72.3692H100.678V73.7933H95.1373L94.6712 77.703H94.7489C95.0208 77.4872 95.3617 77.3082 95.7717 77.1657C96.1816 77.0233 96.6088 76.9521 97.0533 76.9521C97.8646 76.9521 98.5874 77.1463 99.2218 77.5347C99.8604 77.9188 100.361 78.4452 100.724 79.1141C101.09 79.783 101.274 80.5468 101.274 81.4056C101.274 82.2514 101.084 83.0066 100.704 83.6711C100.329 84.3314 99.8108 84.8535 99.1506 85.2376C98.4903 85.6173 97.7395 85.8072 96.898 85.8072ZM108.673 85.626V77.9896H109.807V79.1828H109.906C110.065 78.7751 110.322 78.4586 110.677 78.2332C111.032 78.0045 111.457 77.8902 111.955 77.8902C112.458 77.8902 112.878 78.0045 113.212 78.2332C113.55 78.4586 113.814 78.7751 114.003 79.1828H114.082C114.278 78.7884 114.571 78.4752 114.962 78.2432C115.353 78.0078 115.822 77.8902 116.369 77.8902C117.052 77.8902 117.611 78.104 118.045 78.5315C118.479 78.9558 118.696 79.617 118.696 80.5152V85.626H117.523V80.5152C117.523 79.9517 117.369 79.549 117.06 79.3071C116.752 79.0651 116.389 78.9442 115.972 78.9442C115.435 78.9442 115.019 79.1066 114.724 79.4314C114.429 79.7529 114.281 80.1605 114.281 80.6544V85.626H113.088V80.3959C113.088 79.9617 112.947 79.612 112.666 79.3469C112.384 79.0784 112.021 78.9442 111.577 78.9442C111.272 78.9442 110.987 79.0254 110.722 79.1878C110.46 79.3502 110.248 79.5756 110.085 79.8639C109.926 80.1489 109.847 80.4787 109.847 80.8532V85.626H108.673ZM121 85.626V75.4442H124.56C125.269 75.4442 125.854 75.5668 126.315 75.8121C126.776 76.054 127.119 76.3805 127.344 76.7915C127.57 77.1991 127.682 77.6515 127.682 78.1487C127.682 78.5862 127.604 78.9475 127.449 79.2325C127.296 79.5175 127.094 79.7429 126.842 79.9086C126.593 80.0744 126.323 80.197 126.032 80.2765V80.376C126.343 80.3959 126.656 80.5052 126.971 80.7041C127.286 80.903 127.55 81.188 127.762 81.5592C127.974 81.9304 128.08 82.3845 128.08 82.9214C128.08 83.4318 127.964 83.8909 127.732 84.2986C127.5 84.7062 127.134 85.0294 126.633 85.268C126.133 85.5067 125.481 85.626 124.679 85.626H121ZM122.233 84.5322H124.679C125.485 84.5322 126.057 84.3765 126.395 84.0649C126.736 83.75 126.907 83.3689 126.907 82.9214C126.907 82.5767 126.819 82.2586 126.643 81.9669C126.467 81.6719 126.217 81.4366 125.892 81.2609C125.568 81.0819 125.183 80.9925 124.739 80.9925H122.233V84.5322ZM122.233 79.9186H124.52C124.891 79.9186 125.226 79.8457 125.525 79.6998C125.826 79.554 126.065 79.3485 126.24 79.0834C126.419 78.8182 126.509 78.5067 126.509 78.1487C126.509 77.7013 126.353 77.3218 126.042 77.0102C125.73 76.6953 125.236 76.5379 124.56 76.5379H122.233V79.9186ZM129.549 76.5379V75.4442H137.185V76.5379H133.984V85.626H132.751V76.5379H129.549ZM146.858 78.626H145.625C145.552 78.2713 145.424 77.9598 145.242 77.6913C145.063 77.4229 144.844 77.1975 144.586 77.0152C144.33 76.8296 144.047 76.6904 143.735 76.5976C143.424 76.5048 143.099 76.4584 142.761 76.4584C142.145 76.4584 141.586 76.6141 141.086 76.9257C140.588 77.2372 140.192 77.6963 139.897 78.3028C139.606 78.9094 139.46 79.6534 139.46 80.5351C139.46 81.4167 139.606 82.1608 139.897 82.7673C140.192 83.3738 140.588 83.8329 141.086 84.1444C141.586 84.456 142.145 84.6118 142.761 84.6118C143.099 84.6118 143.424 84.5654 143.735 84.4726C144.047 84.3798 144.33 84.2422 144.586 84.0599C144.844 83.8743 145.063 83.6473 145.242 83.3788C145.424 83.107 145.552 82.7955 145.625 82.4442H146.858C146.765 82.9645 146.596 83.4302 146.351 83.8412C146.105 84.2522 145.8 84.6018 145.436 84.8902C145.071 85.1752 144.662 85.3923 144.208 85.5415C143.757 85.6906 143.275 85.7652 142.761 85.7652C141.893 85.7652 141.12 85.5531 140.444 85.1288C139.768 84.7046 139.236 84.1014 138.848 83.3192C138.461 82.537 138.267 81.6089 138.267 80.5351C138.267 79.4612 138.461 78.5332 138.848 77.751C139.236 76.9688 139.768 76.3656 140.444 75.9413C141.12 75.5171 141.893 75.305 142.761 75.305C143.275 75.305 143.757 75.3795 144.208 75.5287C144.662 75.6778 145.071 75.8966 145.436 76.1849C145.8 76.47 146.105 76.818 146.351 77.229C146.596 77.6366 146.765 78.1023 146.858 78.626Z" fill="white"/>
<path d="M106.262 100.091C105.775 100.091 105.359 99.9579 105.016 99.6925C104.673 99.425 104.411 99.0377 104.23 98.5306C104.048 98.0214 103.958 97.4065 103.958 96.6858C103.958 95.9695 104.048 95.3578 104.23 94.8507C104.413 94.3415 104.676 93.9531 105.019 93.6856C105.365 93.4159 105.779 93.281 106.262 93.281C106.746 93.281 107.159 93.4159 107.502 93.6856C107.847 93.9531 108.11 94.3415 108.292 94.8507C108.475 95.3578 108.567 95.9695 108.567 96.6858C108.567 97.4065 108.476 98.0214 108.295 98.5306C108.114 99.0377 107.851 99.425 107.508 99.6925C107.165 99.9579 106.75 100.091 106.262 100.091ZM106.262 99.3786C106.746 99.3786 107.121 99.1456 107.389 98.6795C107.656 98.2134 107.79 97.5489 107.79 96.6858C107.79 96.1119 107.728 95.6232 107.605 95.2197C107.485 94.8162 107.31 94.5087 107.081 94.2973C106.855 94.0858 106.582 93.9801 106.262 93.9801C105.783 93.9801 105.409 94.2164 105.139 94.6889C104.869 95.1593 104.735 95.8249 104.735 96.6858C104.735 97.2598 104.795 97.7474 104.916 98.1487C105.037 98.55 105.21 98.8554 105.437 99.0646C105.666 99.2739 105.941 99.3786 106.262 99.3786ZM110.135 100.052C109.975 100.052 109.838 99.9946 109.724 99.8802C109.609 99.7659 109.552 99.6289 109.552 99.4692C109.552 99.3095 109.609 99.1725 109.724 99.0582C109.838 98.9438 109.975 98.8866 110.135 98.8866C110.294 98.8866 110.431 98.9438 110.546 99.0582C110.66 99.1725 110.717 99.3095 110.717 99.4692C110.717 99.5749 110.69 99.672 110.636 99.7605C110.585 99.849 110.514 99.9202 110.426 99.9741C110.34 100.026 110.243 100.052 110.135 100.052ZM114.006 100.091C113.518 100.091 113.103 99.9579 112.76 99.6925C112.416 99.425 112.154 99.0377 111.973 98.5306C111.792 98.0214 111.701 97.4065 111.701 96.6858C111.701 95.9695 111.792 95.3578 111.973 94.8507C112.156 94.3415 112.42 93.9531 112.763 93.6856C113.108 93.4159 113.522 93.281 114.006 93.281C114.489 93.281 114.902 93.4159 115.245 93.6856C115.59 93.9531 115.854 94.3415 116.035 94.8507C116.218 95.3578 116.31 95.9695 116.31 96.6858C116.31 97.4065 116.219 98.0214 116.038 98.5306C115.857 99.0377 115.595 99.425 115.252 99.6925C114.909 99.9579 114.493 100.091 114.006 100.091ZM114.006 99.3786C114.489 99.3786 114.864 99.1456 115.132 98.6795C115.399 98.2134 115.533 97.5489 115.533 96.6858C115.533 96.1119 115.472 95.6232 115.349 95.2197C115.228 94.8162 115.053 94.5087 114.824 94.2973C114.598 94.0858 114.325 93.9801 114.006 93.9801C113.527 93.9801 113.152 94.2164 112.883 94.6889C112.613 95.1593 112.478 95.8249 112.478 96.6858C112.478 97.2598 112.538 97.7474 112.659 98.1487C112.78 98.55 112.954 98.8554 113.18 99.0646C113.409 99.2739 113.684 99.3786 114.006 99.3786ZM119.702 100.091C119.214 100.091 118.799 99.9579 118.456 99.6925C118.113 99.425 117.851 99.0377 117.669 98.5306C117.488 98.0214 117.397 97.4065 117.397 96.6858C117.397 95.9695 117.488 95.3578 117.669 94.8507C117.853 94.3415 118.116 93.9531 118.459 93.6856C118.804 93.4159 119.219 93.281 119.702 93.281C120.185 93.281 120.598 93.4159 120.941 93.6856C121.287 93.9531 121.55 94.3415 121.731 94.8507C121.915 95.3578 122.006 95.9695 122.006 96.6858C122.006 97.4065 121.916 98.0214 121.734 98.5306C121.553 99.0377 121.291 99.425 120.948 99.6925C120.605 99.9579 120.189 100.091 119.702 100.091ZM119.702 99.3786C120.185 99.3786 120.561 99.1456 120.828 98.6795C121.096 98.2134 121.229 97.5489 121.229 96.6858C121.229 96.1119 121.168 95.6232 121.045 95.2197C120.924 94.8162 120.749 94.5087 120.521 94.2973C120.294 94.0858 120.021 93.9801 119.702 93.9801C119.223 93.9801 118.848 94.2164 118.579 94.6889C118.309 95.1593 118.174 95.8249 118.174 96.6858C118.174 97.2598 118.235 97.7474 118.355 98.1487C118.476 98.55 118.65 98.8554 118.877 99.0646C119.105 99.2739 119.38 99.3786 119.702 99.3786ZM125.307 100.091C124.928 100.091 124.586 100.015 124.281 99.8641C123.977 99.713 123.733 99.5059 123.55 99.2427C123.367 98.9794 123.266 98.6795 123.249 98.3429H124.026C124.056 98.6428 124.192 98.891 124.434 99.0873C124.677 99.2815 124.969 99.3786 125.307 99.3786C125.579 99.3786 125.821 99.3149 126.032 99.1876C126.246 99.0603 126.413 98.8856 126.534 98.6633C126.657 98.4389 126.719 98.1854 126.719 97.9027C126.719 97.6136 126.655 97.3558 126.528 97.1292C126.402 96.9005 126.23 96.7203 126.01 96.5887C125.79 96.4571 125.538 96.3902 125.256 96.3881C125.053 96.3859 124.845 96.4172 124.631 96.4819C124.417 96.5445 124.242 96.6254 124.103 96.7247L123.353 96.634L123.754 93.3716H127.198V94.0837H124.427L124.194 96.0385H124.233C124.369 95.9306 124.539 95.8411 124.744 95.7699C124.949 95.6987 125.163 95.6631 125.385 95.6631C125.791 95.6631 126.152 95.7602 126.469 95.9544C126.789 96.1464 127.039 96.4096 127.22 96.7441C127.404 97.0785 127.495 97.4604 127.495 97.8898C127.495 98.3127 127.4 98.6903 127.211 99.0226C127.023 99.3527 126.764 99.6138 126.434 99.8058C126.104 99.9957 125.728 100.091 125.307 100.091ZM132.419 93.7082V92.5431H132.95V93.7082H132.419ZM133.662 93.7082V92.5431H134.192V93.7082H133.662ZM132.419 100.829V99.6634H132.95V100.829H132.419ZM133.662 100.829V99.6634H134.192V100.829H133.662ZM131.461 100V93.3716H133.778C134.24 93.3716 134.621 93.4515 134.921 93.6111C135.221 93.7686 135.444 93.9812 135.591 94.2487C135.737 94.5141 135.811 94.8086 135.811 95.1323C135.811 95.4171 135.76 95.6523 135.659 95.8379C135.559 96.0234 135.428 96.1701 135.264 96.278C135.102 96.3859 134.926 96.4657 134.736 96.5175V96.5822C134.939 96.5952 135.143 96.6664 135.348 96.7959C135.553 96.9253 135.724 97.1109 135.863 97.3525C136.001 97.5942 136.07 97.8898 136.07 98.2393C136.07 98.5716 135.994 98.8705 135.843 99.1359C135.692 99.4012 135.454 99.6116 135.128 99.767C134.802 99.9223 134.378 100 133.856 100H131.461ZM132.264 99.288H133.856C134.38 99.288 134.752 99.1866 134.972 98.9837C135.195 98.7788 135.306 98.5306 135.306 98.2393C135.306 98.0149 135.249 97.8078 135.134 97.6179C135.02 97.4259 134.857 97.2727 134.646 97.1583C134.434 97.0418 134.184 96.9836 133.895 96.9836H132.264V99.288ZM132.264 96.2845H133.752C133.994 96.2845 134.212 96.237 134.406 96.1421C134.602 96.0471 134.758 95.9134 134.872 95.7408C134.989 95.5681 135.047 95.3653 135.047 95.1323C135.047 94.841 134.946 94.594 134.743 94.3911C134.54 94.1862 134.218 94.0837 133.778 94.0837H132.264V96.2845Z" fill="#6E7889"/>
<rect x="44.6076" y="123.608" width="72.8848" height="43.7848" rx="4.8608" fill="#1D232D"/>
<rect x="44.6076" y="123.608" width="72.8848" height="43.7848" rx="4.8608" stroke="#006269" stroke-width="1.2152"/>
<path d="M83.9309 144.322V146.379H77.5649V144.322H83.9309Z" fill="white"/>
<rect x="121.9" y="123" width="74.1" height="45" rx="5.4684" fill="#006269"/>
<path d="M157.13 150.405V140.849H159.298V150.405H157.13ZM153.436 146.711V144.543H162.992V146.711H153.436Z" fill="white"/>
</g>
<defs>
<linearGradient id="paint0_linear_1514_1768" x1="125.89" y1="-438.93" x2="125.89" y2="285.999" gradientUnits="userSpaceOnUse">
<stop stop-color="#006269"/>
<stop offset="1" stop-color="#1D232D"/>
</linearGradient>
<clipPath id="clip0_1514_1768">
<rect width="240" height="178.396" fill="white"/>
</clipPath>
</defs>
</svg>
