<svg width="240" height="180" viewBox="0 0 240 180" fill="none" xmlns="http://www.w3.org/2000/svg">
<g clip-path="url(#clip0_45_1151)">
<rect width="240" height="180" fill="#0B0B0B"/>
<rect width="394.674" height="65.8807" transform="translate(22 24)" fill="#292929"/>
<g clip-path="url(#clip1_45_1151)">
<path d="M54.2083 74.5084C63.911 74.5084 71.7765 66.6429 71.7765 56.9403C71.7765 47.2376 63.911 39.3721 54.2083 39.3721C44.5057 39.3721 36.6401 47.2376 36.6401 56.9403C36.6401 66.6429 44.5057 74.5084 54.2083 74.5084Z" fill="#627EEA"/>
<path d="M54.7551 43.7642V53.5035L62.9869 57.1819L54.7551 43.7642Z" fill="white" fill-opacity="0.602"/>
<path d="M54.7551 43.7642L46.5222 57.1819L54.7551 53.5035V43.7642Z" fill="#E6E6E6"/>
<path d="M54.7551 63.4934V70.1111L62.9924 58.7148L54.7551 63.4934Z" fill="white" fill-opacity="0.602"/>
<path d="M54.7551 70.1111V63.4923L46.5222 58.7148L54.7551 70.1111Z" fill="#E6E6E6"/>
<path d="M54.7551 61.9616L62.9869 57.182L54.7551 53.5059V61.9616Z" fill="white" fill-opacity="0.2"/>
<path d="M46.5222 57.182L54.7551 61.9616V53.5059L46.5222 57.182Z" fill="white" fill-opacity="0.602"/>
</g>
<path d="M87.7883 54.4404V41.2887H96.0739V43.1299H89.8174V46.9064H95.5478V48.7476H89.8174V52.5992H96.1678V54.4404H87.7883ZM101.421 54.4404V43.1299H97.3814V41.2887H107.489V43.1299H103.45V54.4404H101.421ZM109.329 54.4404V41.2887H111.358V46.9251H116.882V41.2887H118.911V54.4404H116.882V48.7664H111.358V54.4404H109.329Z" fill="#E6E6E6"/>
<path d="M87.7051 73.4404V62.1675H94.646V63.3914H89.0578V67.1598H94.1951V68.3837H89.0578V72.2165H94.7265V73.4404H87.7051ZM99.7265 73.4404C99.2756 73.4404 98.9266 73.317 98.6797 73.07C98.4435 72.8231 98.3254 72.4849 98.3254 72.0555V66.6767H95.9581V65.5655H98.3254V62.7634H99.5976V65.5655H102.174V66.6767H99.5976V71.8622C99.5976 72.1843 99.7533 72.3453 100.065 72.3453H101.82V73.4404H99.7265ZM104.235 73.4404V62.1675H105.507V66.8216H105.733C105.84 66.5854 106.001 66.3653 106.216 66.1613C106.441 65.9466 106.726 65.7695 107.069 65.6299C107.424 65.4903 107.869 65.4206 108.406 65.4206C108.996 65.4206 109.523 65.5494 109.984 65.8071C110.457 66.054 110.832 66.419 111.111 66.9021C111.391 67.3745 111.53 67.965 111.53 68.6736V73.4404H110.258V68.7702C110.258 67.9865 110.059 67.4175 109.662 67.0632C109.276 66.7089 108.75 66.5317 108.084 66.5317C107.322 66.5317 106.699 66.7787 106.216 67.2725C105.743 67.7664 105.507 68.5018 105.507 69.4788V73.4404H104.235ZM117.719 73.6659C116.924 73.6659 116.226 73.4995 115.625 73.1667C115.024 72.8231 114.557 72.3453 114.224 71.7334C113.891 71.1214 113.725 70.4128 113.725 69.6076V69.4144C113.725 68.5984 113.891 67.8845 114.224 67.2725C114.557 66.6606 115.019 66.1882 115.609 65.8554C116.2 65.5118 116.876 65.34 117.638 65.34C118.379 65.34 119.034 65.5011 119.603 65.8232C120.172 66.1345 120.617 66.5854 120.94 67.1759C121.262 67.7664 121.423 68.4589 121.423 69.2533V69.8331H114.997C115.029 70.6812 115.303 71.3469 115.818 71.83C116.334 72.3024 116.978 72.5386 117.751 72.5386C118.427 72.5386 118.948 72.3829 119.313 72.0716C119.678 71.7602 119.957 71.3898 120.15 70.9604L121.246 71.4918C121.085 71.8246 120.859 72.1575 120.569 72.4903C120.29 72.8231 119.92 73.1022 119.458 73.3277C119.007 73.5532 118.427 73.6659 117.719 73.6659ZM115.013 68.7863H120.134C120.091 68.0563 119.839 67.4873 119.377 67.0793C118.927 66.6713 118.347 66.4673 117.638 66.4673C116.919 66.4673 116.328 66.6713 115.867 67.0793C115.405 67.4873 115.121 68.0563 115.013 68.7863ZM123.642 73.4404V65.5655H124.882V66.5317H125.107C125.247 66.1882 125.462 65.9359 125.751 65.7748C126.041 65.6138 126.422 65.5333 126.895 65.5333H127.829V66.6928H126.814C126.245 66.6928 125.784 66.8538 125.429 67.1759C125.086 67.4873 124.914 67.9757 124.914 68.6414V73.4404H123.642ZM133.037 73.6659C132.242 73.6659 131.544 73.4995 130.943 73.1667C130.342 72.8231 129.875 72.3453 129.542 71.7334C129.209 71.1214 129.043 70.4128 129.043 69.6076V69.4144C129.043 68.5984 129.209 67.8845 129.542 67.2725C129.875 66.6606 130.336 66.1882 130.927 65.8554C131.517 65.5118 132.194 65.34 132.956 65.34C133.697 65.34 134.352 65.5011 134.921 65.8232C135.49 66.1345 135.935 66.5854 136.257 67.1759C136.579 67.7664 136.741 68.4589 136.741 69.2533V69.8331H130.315C130.347 70.6812 130.621 71.3469 131.136 71.83C131.652 72.3024 132.296 72.5386 133.069 72.5386C133.745 72.5386 134.266 72.3829 134.631 72.0716C134.996 71.7602 135.275 71.3898 135.468 70.9604L136.563 71.4918C136.402 71.8246 136.177 72.1575 135.887 72.4903C135.608 72.8231 135.237 73.1022 134.776 73.3277C134.325 73.5532 133.745 73.6659 133.037 73.6659ZM130.331 68.7863H135.452C135.409 68.0563 135.157 67.4873 134.695 67.0793C134.244 66.6713 133.665 66.4673 132.956 66.4673C132.237 66.4673 131.646 66.6713 131.185 67.0793C130.723 67.4873 130.438 68.0563 130.331 68.7863ZM141.971 73.5854C141.402 73.5854 140.876 73.4619 140.393 73.215C139.921 72.968 139.545 72.603 139.266 72.1199C138.997 71.626 138.863 71.0302 138.863 70.3323V65.5655H140.135V70.2357C140.135 71.0194 140.328 71.5884 140.715 71.9427C141.112 72.297 141.644 72.4742 142.309 72.4742C143.061 72.4742 143.678 72.2272 144.161 71.7334C144.644 71.2395 144.886 70.5041 144.886 69.5271V65.5655H146.158V73.4404H144.918V72.1038H144.693C144.521 72.4795 144.226 72.8231 143.807 73.1345C143.388 73.4351 142.776 73.5854 141.971 73.5854ZM148.82 73.4404V65.5655H150.06V66.5478H150.286C150.436 66.2687 150.683 66.011 151.027 65.7748C151.37 65.5386 151.853 65.4206 152.476 65.4206C153.088 65.4206 153.582 65.5548 153.958 65.8232C154.344 66.0916 154.623 66.419 154.795 66.8055H155.02C155.203 66.419 155.477 66.0916 155.842 65.8232C156.217 65.5548 156.738 65.4206 157.404 65.4206C157.93 65.4206 158.392 65.5279 158.789 65.7426C159.186 65.9574 159.497 66.2687 159.723 66.6767C159.959 67.0739 160.077 67.5517 160.077 68.1099V73.4404H158.805V68.2227C158.805 67.6966 158.649 67.2833 158.338 66.9827C158.037 66.6713 157.613 66.5156 157.066 66.5156C156.486 66.5156 156.008 66.7035 155.632 67.0793C155.267 67.455 155.085 67.9972 155.085 68.7058V73.4404H153.813V68.2227C153.813 67.6966 153.657 67.2833 153.346 66.9827C153.045 66.6713 152.621 66.5156 152.073 66.5156C151.494 66.5156 151.016 66.7035 150.64 67.0793C150.275 67.455 150.093 67.9972 150.093 68.7058V73.4404H148.82Z" fill="#959595"/>
<rect width="394.674" height="65.8807" transform="translate(22 93.541)" fill="#292929"/>
<rect x="36.6401" y="108.913" width="35.1364" height="35.1364" rx="17.5682" fill="#1D2229"/>
<rect x="41.0322" y="127.687" width="3.0028" height="3.0028" transform="rotate(-90 41.0322 127.687)" fill="#E6E6E6"/>
<rect x="47.0378" y="127.687" width="3.0028" height="3.0028" transform="rotate(-90 47.0378 127.687)" fill="#E6E6E6"/>
<rect x="47.0378" y="130.689" width="3.0028" height="3.0028" transform="rotate(180 47.0378 130.689)" fill="#E6E6E6"/>
<rect x="47.0378" y="124.684" width="3.0028" height="3.0028" transform="rotate(180 47.0378 124.684)" fill="#E6E6E6"/>
<path fill-rule="evenodd" clip-rule="evenodd" d="M65.3795 122.364C65.1716 120.19 63.2959 119.46 60.9274 119.251L60.9294 116.236L59.0938 116.235L59.0919 119.171C58.61 119.17 58.1169 119.179 57.627 119.189L57.6293 116.234L55.7952 116.233L55.7925 119.247C55.3952 119.255 55.005 119.262 54.6246 119.262L54.6243 119.252L52.0934 119.25L52.0925 121.21C52.0925 121.21 53.4476 121.185 53.4251 121.21C54.1684 121.21 54.4105 121.642 54.4801 122.015L54.4779 125.449C54.5292 125.449 54.5961 125.451 54.6719 125.462L54.4785 125.462L54.4742 130.273C54.4415 130.507 54.3037 130.88 53.7844 130.881C53.8079 130.901 52.4505 130.879 52.4505 130.879L52.0845 133.071L54.473 133.072C54.7427 133.073 55.0098 133.076 55.274 133.079C55.4449 133.081 55.6151 133.083 55.7834 133.084L55.7822 136.134L57.6153 136.135L57.6178 133.118C58.1206 133.129 58.6077 133.134 59.0832 133.134L59.0804 136.136L60.9154 136.138L60.9181 133.094C64.0033 132.919 66.1635 132.143 66.4328 129.247C66.6509 126.914 65.5547 125.873 63.8037 125.45C64.8677 124.908 65.534 123.954 65.3795 122.364ZM62.8073 128.882C62.8063 130.973 59.5204 130.925 58.0183 130.902C57.8837 130.9 57.7635 130.899 57.6613 130.899L57.6645 126.859C57.7895 126.859 57.9413 126.856 58.1133 126.852C59.6529 126.816 62.8076 126.744 62.8073 128.882ZM57.9676 125.014C59.2217 125.035 61.9554 125.082 61.9572 123.181C61.9588 121.238 59.3288 121.306 58.0443 121.339C57.8999 121.343 57.7725 121.346 57.6678 121.346L57.6652 125.01C57.7516 125.01 57.8535 125.012 57.9676 125.014Z" fill="#E6E6E6"/>
<path d="M90.9259 123.981V112.671H86.8865V110.83H96.9945V112.671H92.955V123.981H90.9259ZM98.3452 123.981V122.178H100.111V112.633H98.3452V110.83H105.015C105.804 110.83 106.493 110.967 107.082 111.243C107.67 111.506 108.128 111.888 108.453 112.389C108.791 112.878 108.961 113.46 108.961 114.136V114.324C108.961 114.926 108.848 115.42 108.622 115.809C108.397 116.197 108.121 116.497 107.796 116.71C107.483 116.923 107.182 117.074 106.894 117.161V117.462C107.182 117.537 107.489 117.687 107.814 117.913C108.153 118.126 108.434 118.426 108.66 118.815C108.898 119.203 109.017 119.71 109.017 120.337V120.524C109.017 121.251 108.848 121.871 108.51 122.384C108.171 122.898 107.702 123.293 107.101 123.568C106.512 123.844 105.829 123.981 105.053 123.981H98.3452ZM102.159 122.14H104.808C105.485 122.14 106.017 121.977 106.405 121.652C106.794 121.326 106.988 120.875 106.988 120.299V120.13C106.988 119.554 106.794 119.103 106.405 118.777C106.03 118.451 105.497 118.289 104.808 118.289H102.159V122.14ZM102.159 116.429H104.808C105.447 116.429 105.961 116.272 106.349 115.959C106.737 115.633 106.931 115.195 106.931 114.644V114.456C106.931 113.905 106.737 113.473 106.349 113.159C105.973 112.834 105.46 112.671 104.808 112.671H102.159V116.429ZM114.191 123.981V112.671H110.152V110.83H120.26V112.671H116.22V123.981H114.191ZM126.433 124.244C124.83 124.244 123.559 123.794 122.619 122.892C121.68 121.977 121.21 120.662 121.21 118.946V115.865C121.21 114.149 121.68 112.84 122.619 111.938C123.559 111.024 124.83 110.567 126.433 110.567C128.011 110.567 129.226 111.005 130.078 111.882C130.942 112.759 131.375 113.955 131.375 115.47V115.583H129.364V115.414C129.364 114.525 129.12 113.798 128.631 113.235C128.156 112.671 127.423 112.389 126.433 112.389C125.431 112.389 124.648 112.696 124.085 113.31C123.521 113.911 123.239 114.75 123.239 115.827V118.984C123.239 120.048 123.521 120.888 124.085 121.501C124.648 122.115 125.431 122.422 126.433 122.422C127.423 122.422 128.156 122.14 128.631 121.577C129.12 121 129.364 120.274 129.364 119.397V119.078H131.375V119.341C131.375 120.856 130.942 122.053 130.078 122.929C129.226 123.806 128.011 124.244 126.433 124.244Z" fill="#E6E6E6"/>
<path d="M90.475 142.981V132.932H86.8516V131.709H95.4512V132.932H91.8278V142.981H90.475ZM95.9942 142.981V135.107H97.2342V136.073H97.4597C97.5993 135.729 97.814 135.477 98.1038 135.316C98.3937 135.155 98.7749 135.074 99.2472 135.074H100.181V136.234H99.1667C98.5977 136.234 98.1361 136.395 97.7818 136.717C97.4382 137.028 97.2664 137.517 97.2664 138.182V142.981H95.9942ZM105.389 143.207C104.594 143.207 103.897 143.04 103.295 142.708C102.694 142.364 102.227 141.886 101.894 141.274C101.562 140.662 101.395 139.954 101.395 139.149V138.955C101.395 138.139 101.562 137.426 101.894 136.814C102.227 136.202 102.689 135.729 103.279 135.396C103.87 135.053 104.546 134.881 105.308 134.881C106.049 134.881 106.704 135.042 107.273 135.364C107.842 135.676 108.288 136.126 108.61 136.717C108.932 137.307 109.093 138 109.093 138.794V139.374H102.667C102.7 140.222 102.973 140.888 103.489 141.371C104.004 141.843 104.648 142.08 105.421 142.08C106.098 142.08 106.618 141.924 106.983 141.613C107.348 141.301 107.627 140.931 107.821 140.501L108.916 141.033C108.755 141.366 108.529 141.698 108.239 142.031C107.96 142.364 107.59 142.643 107.128 142.869C106.677 143.094 106.098 143.207 105.389 143.207ZM102.683 138.327H107.805C107.762 137.597 107.509 137.028 107.048 136.62C106.597 136.212 106.017 136.008 105.308 136.008C104.589 136.008 103.999 136.212 103.537 136.62C103.075 137.028 102.791 137.597 102.683 138.327ZM114.485 143.207C113.508 143.207 112.681 142.981 112.005 142.531C111.339 142.08 110.936 141.366 110.797 140.389L112.005 140.115C112.09 140.63 112.251 141.038 112.488 141.339C112.724 141.629 113.014 141.838 113.357 141.967C113.712 142.085 114.087 142.144 114.485 142.144C115.075 142.144 115.542 142.026 115.886 141.79C116.229 141.554 116.401 141.237 116.401 140.84C116.401 140.432 116.235 140.147 115.902 139.986C115.58 139.814 115.134 139.675 114.565 139.567L113.905 139.455C113.4 139.369 112.939 139.235 112.52 139.052C112.101 138.87 111.768 138.623 111.521 138.311C111.274 138 111.151 137.608 111.151 137.136C111.151 136.427 111.425 135.874 111.972 135.477C112.52 135.08 113.245 134.881 114.146 134.881C115.037 134.881 115.757 135.085 116.304 135.493C116.863 135.89 117.222 136.454 117.383 137.184L116.192 137.49C116.095 136.921 115.864 136.524 115.499 136.298C115.134 136.062 114.683 135.944 114.146 135.944C113.61 135.944 113.185 136.046 112.874 136.25C112.563 136.443 112.407 136.733 112.407 137.12C112.407 137.495 112.552 137.774 112.842 137.957C113.143 138.129 113.54 138.258 114.034 138.343L114.694 138.456C115.252 138.553 115.751 138.687 116.192 138.859C116.643 139.02 116.997 139.256 117.254 139.567C117.523 139.879 117.657 140.287 117.657 140.791C117.657 141.564 117.367 142.16 116.787 142.579C116.218 142.998 115.451 143.207 114.485 143.207ZM119.804 142.981V131.709H121.077V136.363H121.302C121.41 136.126 121.571 135.906 121.785 135.702C122.011 135.488 122.295 135.31 122.639 135.171C122.993 135.031 123.439 134.962 123.975 134.962C124.566 134.962 125.092 135.09 125.554 135.348C126.026 135.595 126.402 135.96 126.681 136.443C126.96 136.916 127.1 137.506 127.1 138.215V142.981H125.827V138.311C125.827 137.527 125.629 136.958 125.232 136.604C124.845 136.25 124.319 136.073 123.653 136.073C122.891 136.073 122.268 136.32 121.785 136.814C121.313 137.307 121.077 138.043 121.077 139.02V142.981H119.804ZM129.681 142.981V131.709H130.953V136.363H131.179C131.286 136.126 131.447 135.906 131.662 135.702C131.887 135.488 132.172 135.31 132.515 135.171C132.869 135.031 133.315 134.962 133.852 134.962C134.442 134.962 134.968 135.09 135.43 135.348C135.902 135.595 136.278 135.96 136.557 136.443C136.836 136.916 136.976 137.506 136.976 138.215V142.981H135.704V138.311C135.704 137.527 135.505 136.958 135.108 136.604C134.721 136.25 134.195 136.073 133.53 136.073C132.767 136.073 132.145 136.32 131.662 136.814C131.189 137.307 130.953 138.043 130.953 139.02V142.981H129.681ZM143.197 143.207C142.402 143.207 141.699 143.04 141.087 142.708C140.486 142.375 140.014 141.908 139.67 141.307C139.337 140.695 139.171 139.975 139.171 139.149V138.939C139.171 138.123 139.337 137.409 139.67 136.797C140.014 136.185 140.486 135.713 141.087 135.38C141.699 135.047 142.402 134.881 143.197 134.881C143.991 134.881 144.689 135.047 145.29 135.38C145.902 135.713 146.375 136.185 146.707 136.797C147.051 137.409 147.223 138.123 147.223 138.939V139.149C147.223 139.975 147.051 140.695 146.707 141.307C146.375 141.908 145.902 142.375 145.29 142.708C144.689 143.04 143.991 143.207 143.197 143.207ZM143.197 142.064C144.034 142.064 144.7 141.8 145.194 141.274C145.698 140.738 145.951 140.018 145.951 139.116V138.972C145.951 138.07 145.698 137.356 145.194 136.83C144.7 136.293 144.034 136.024 143.197 136.024C142.37 136.024 141.704 136.293 141.2 136.83C140.695 137.356 140.443 138.07 140.443 138.972V139.116C140.443 140.018 140.695 140.738 141.2 141.274C141.704 141.8 142.37 142.064 143.197 142.064ZM149.512 142.981V131.709H150.784V142.981H149.512ZM156.793 143.207C156.117 143.207 155.494 143.046 154.925 142.724C154.356 142.402 153.905 141.935 153.572 141.323C153.24 140.711 153.073 139.986 153.073 139.149V138.939C153.073 138.102 153.24 137.383 153.572 136.781C153.905 136.169 154.351 135.702 154.909 135.38C155.478 135.047 156.106 134.881 156.793 134.881C157.341 134.881 157.802 134.956 158.178 135.107C158.565 135.246 158.876 135.429 159.112 135.654C159.348 135.869 159.531 136.1 159.66 136.347H159.885V131.709H161.157V142.981H159.917V141.677H159.692C159.477 142.074 159.144 142.429 158.694 142.74C158.243 143.051 157.609 143.207 156.793 143.207ZM157.131 142.08C157.947 142.08 158.608 141.822 159.112 141.307C159.628 140.781 159.885 140.05 159.885 139.116V138.972C159.885 138.037 159.628 137.313 159.112 136.797C158.608 136.271 157.947 136.008 157.131 136.008C156.326 136.008 155.661 136.271 155.135 136.797C154.619 137.313 154.362 138.037 154.362 138.972V139.116C154.362 140.05 154.619 140.781 155.135 141.307C155.661 141.822 156.326 142.08 157.131 142.08ZM167.38 142.981V141.774H168.958V132.916H167.38V131.709H173.033C173.687 131.709 174.267 131.827 174.772 132.063C175.287 132.299 175.684 132.632 175.963 133.061C176.253 133.48 176.398 133.974 176.398 134.543V134.672C176.398 135.198 176.296 135.633 176.092 135.976C175.888 136.309 175.647 136.572 175.368 136.765C175.088 136.948 174.815 137.082 174.546 137.168V137.393C174.815 137.458 175.094 137.587 175.384 137.78C175.674 137.962 175.915 138.225 176.108 138.569C176.312 138.912 176.414 139.347 176.414 139.873V140.034C176.414 140.646 176.264 141.178 175.963 141.629C175.674 142.069 175.271 142.407 174.756 142.643C174.251 142.869 173.671 142.981 173.016 142.981H167.38ZM170.311 141.758H172.871C173.58 141.758 174.122 141.591 174.498 141.258C174.874 140.925 175.062 140.475 175.062 139.906V139.761C175.062 139.192 174.874 138.741 174.498 138.408C174.122 138.075 173.58 137.909 172.871 137.909H170.311V141.758ZM170.311 136.685H172.92C173.564 136.685 174.079 136.524 174.466 136.202C174.852 135.869 175.046 135.434 175.046 134.897V134.736C175.046 134.189 174.852 133.754 174.466 133.432C174.09 133.099 173.575 132.932 172.92 132.932H170.311V136.685ZM178.607 142.981V135.107H179.879V142.981H178.607ZM179.251 133.883C178.972 133.883 178.736 133.791 178.542 133.609C178.36 133.426 178.269 133.195 178.269 132.916C178.269 132.626 178.36 132.39 178.542 132.208C178.736 132.025 178.972 131.934 179.251 131.934C179.53 131.934 179.761 132.025 179.943 132.208C180.126 132.39 180.217 132.626 180.217 132.916C180.217 133.195 180.126 133.426 179.943 133.609C179.761 133.791 179.53 133.883 179.251 133.883ZM185.453 142.981C185.002 142.981 184.653 142.858 184.406 142.611C184.17 142.364 184.052 142.026 184.052 141.596V136.218H181.684V135.107H184.052V132.304H185.324V135.107H187.901V136.218H185.324V141.403C185.324 141.725 185.48 141.886 185.791 141.886H187.546V142.981H185.453ZM193.302 143.207C192.54 143.207 191.852 143.046 191.24 142.724C190.639 142.391 190.161 141.919 189.807 141.307C189.464 140.695 189.292 139.97 189.292 139.133V138.955C189.292 138.107 189.464 137.383 189.807 136.781C190.161 136.169 190.639 135.702 191.24 135.38C191.852 135.047 192.54 134.881 193.302 134.881C194.053 134.881 194.692 135.021 195.218 135.3C195.755 135.579 196.174 135.949 196.474 136.411C196.786 136.873 196.984 137.366 197.07 137.893L195.83 138.15C195.776 137.764 195.648 137.409 195.444 137.087C195.25 136.765 194.977 136.508 194.622 136.314C194.268 136.121 193.833 136.024 193.318 136.024C192.792 136.024 192.319 136.143 191.901 136.379C191.493 136.615 191.165 136.953 190.918 137.393C190.682 137.833 190.564 138.36 190.564 138.972V139.116C190.564 139.728 190.682 140.254 190.918 140.695C191.165 141.135 191.493 141.473 191.901 141.709C192.319 141.945 192.792 142.064 193.318 142.064C194.102 142.064 194.697 141.86 195.105 141.452C195.524 141.044 195.782 140.539 195.878 139.938L197.135 140.212C197.016 140.727 196.802 141.215 196.49 141.677C196.179 142.139 195.755 142.509 195.218 142.788C194.692 143.067 194.053 143.207 193.302 143.207ZM202.943 143.207C202.148 143.207 201.445 143.04 200.833 142.708C200.232 142.375 199.759 141.908 199.416 141.307C199.083 140.695 198.917 139.975 198.917 139.149V138.939C198.917 138.123 199.083 137.409 199.416 136.797C199.759 136.185 200.232 135.713 200.833 135.38C201.445 135.047 202.148 134.881 202.943 134.881C203.737 134.881 204.435 135.047 205.036 135.38C205.648 135.713 206.121 136.185 206.453 136.797C206.797 137.409 206.969 138.123 206.969 138.939V139.149C206.969 139.975 206.797 140.695 206.453 141.307C206.121 141.908 205.648 142.375 205.036 142.708C204.435 143.04 203.737 143.207 202.943 143.207ZM202.943 142.064C203.78 142.064 204.446 141.8 204.94 141.274C205.444 140.738 205.696 140.018 205.696 139.116V138.972C205.696 138.07 205.444 137.356 204.94 136.83C204.446 136.293 203.78 136.024 202.943 136.024C202.116 136.024 201.45 136.293 200.946 136.83C200.441 137.356 200.189 138.07 200.189 138.972V139.116C200.189 140.018 200.441 140.738 200.946 141.274C201.45 141.8 202.116 142.064 202.943 142.064ZM209.258 142.981V135.107H210.53V142.981H209.258ZM209.902 133.883C209.623 133.883 209.387 133.791 209.194 133.609C209.011 133.426 208.92 133.195 208.92 132.916C208.92 132.626 209.011 132.39 209.194 132.208C209.387 132.025 209.623 131.934 209.902 131.934C210.181 131.934 210.412 132.025 210.595 132.208C210.777 132.39 210.869 132.626 210.869 132.916C210.869 133.195 210.777 133.426 210.595 133.609C210.412 133.791 210.181 133.883 209.902 133.883ZM213.206 142.981V135.107H214.446V136.443H214.671C214.843 136.067 215.133 135.729 215.541 135.429C215.959 135.117 216.571 134.962 217.377 134.962C217.967 134.962 218.493 135.085 218.955 135.332C219.427 135.579 219.803 135.944 220.082 136.427C220.361 136.91 220.501 137.506 220.501 138.215V142.981H219.228V138.311C219.228 137.527 219.03 136.958 218.633 136.604C218.246 136.25 217.72 136.073 217.054 136.073C216.292 136.073 215.669 136.32 215.186 136.814C214.714 137.307 214.478 138.043 214.478 139.02V142.981H213.206Z" fill="#959595"/>
<rect width="394.674" height="81.2604" transform="translate(22 163.083)" fill="#292929"/>
</g>
<defs>
<clipPath id="clip0_45_1151">
<rect width="240" height="180" fill="white"/>
</clipPath>
<clipPath id="clip1_45_1151">
<rect width="35.1364" height="35.1364" fill="white" transform="translate(36.6401 39.3721)"/>
</clipPath>
</defs>
</svg>
